 <svg
              viewBox="0 0 150 300"
                    
                  xmlns="http://www.w3.org/2000/svg"
                 
                >
                  <path
                    fill="#F6FC3C"
                    d="M34.2,-51.5C49.2,-43.6,69.6,-42.3,79.2,-32.8C88.7,-23.3,87.4,-5.5,83,10.6C78.7,26.7,71.2,41,59.3,47.3C47.4,53.5,31.1,51.7,15.9,57.9C0.8,64,-13.2,78.1,-27,79.6C-40.8,81.2,-54.4,70.1,-62.3,56.5C-70.2,42.9,-72.2,26.8,-74.6,10.7C-77,-5.4,-79.7,-21.5,-73.8,-33.4C-67.9,-45.2,-53.3,-52.8,-39.6,-61.3C-25.9,-69.7,-12.9,-79.1,-1.7,-76.5C9.6,-73.9,19.2,-59.4,34.2,-51.5Z"
                    transform="translate(58 120) scale(1,-1)"
                    
                  />
                </svg> 