<?xml version="1.0" standalone="no"?>
<svg viewBox="0 0 200 200" xmlns="http://www.w3.org/2000/svg">
  <path fill="#F6FC3C" d="M20.9,-28.5C31.9,-25.5,49,-27.8,54,-22.9C59.1,-17.9,52.1,-5.7,45.4,3C38.6,11.7,32,16.8,27.2,25.1C22.4,33.5,19.5,44.9,11.1,55.5C2.7,66.1,-11.2,75.8,-24.2,75.2C-37.1,74.7,-49.1,63.8,-51.2,50.4C-53.3,37.1,-45.5,21.2,-39.3,10.6C-33.1,0,-28.5,-5.5,-30.1,-18.6C-31.6,-31.7,-39.3,-52.4,-35.3,-58.7C-31.4,-64.9,-15.7,-56.7,-5.4,-48.3C5,-40,9.9,-31.6,20.9,-28.5Z" transform="translate(100 100)" />
</svg>
