<svg id="visual" viewBox="0 0 900 600" width="900" height="600" xmlns="http://www.w3.org/2000/svg" xmlns:xlink="http://www.w3.org/1999/xlink" version="1.1"><rect x="0" y="0" width="900" height="600" fill="#f0f0f0"></rect><path d="M0 246L37.5 233.5C75 221 150 196 225 181C300 166 375 161 450 177.3C525 193.7 600 231.3 675 230C750 228.7 825 188.3 862.5 168.2L900 148L900 0L862.5 0C825 0 750 0 675 0C600 0 525 0 450 0C375 0 300 0 225 0C150 0 75 0 37.5 0L0 0Z" fill="#1f2937" stroke-linecap="round" stroke-linejoin="miter"></path></svg>